<?xml version="1.0" encoding="UTF-8" standalone="no"?>
<svg width="23px" height="21px" viewBox="0 0 23 21" version="1.1" xmlns="http://www.w3.org/2000/svg" xmlns:xlink="http://www.w3.org/1999/xlink">
    <!-- Generator: Sketch 3.7.2 (28276) - http://www.bohemiancoding.com/sketch -->
    <title>Group 5 Copy 2</title>
    <desc>Created with Sketch.</desc>
    <defs>
        <polygon id="path-1" points="11.3937605 20.9832667 0 20.9832667 0 -6.66666665e-05 11.3937605 -6.66666665e-05 22.7875211 -6.66666665e-05 22.7875211 20.9832667 11.3937605 20.9832667"></polygon>
    </defs>
    <g id="Page-1" stroke="none" stroke-width="1" fill="none" fill-rule="evenodd">
        <g id="iPhone-6" transform="translate(-24.000000, -24.000000)">
            <g id="Group-5-Copy-2" transform="translate(24.000000, 24.000000)">
                <mask id="mask-2" fill="white">
                    <use xlink:href="#path-1"></use>
                </mask>
                <g id="Clip-2"></g>
                <path d="M22.7144618,2.52126667 C22.4161382,1.21726667 21.5610794,0.3236 20.3691382,0.0696 C20.1530059,0.0236 19.9280794,-6.66666665e-05 19.7004471,-6.66666665e-05 C18.5220353,-6.66666665e-05 17.3030353,0.633933333 16.5196824,1.6546 C16.0738882,2.23526667 15.19955,3.37393333 14.1202412,5.3836 C14.1733441,5.16093333 14.2240794,4.94893333 14.2717706,4.74893333 C14.3779765,4.30826667 14.4419029,4.04393333 14.4463,4.02593333 L14.4527265,4.00093333 L14.4547559,3.9786 C14.5616382,3.52926667 14.6414618,3.18926667 14.6823882,3.01026667 C14.9205059,1.96893333 14.6999765,1.04793333 14.0779618,0.4836 C13.7339765,0.171933333 13.2908882,-6.66666665e-05 12.8302118,-6.66666665e-05 C12.6404618,-6.66666665e-05 12.45105,0.0289333333 12.26705,0.0859333333 C11.7732265,0.238933333 10.8890794,0.737933333 10.5170206,2.3616 C7.79118235,12.5902667 4.89182941,16.3649333 3.93868235,17.6052667 C3.68263824,17.9392667 3.31768235,18.1139333 3.08937353,18.1139333 C3.06806471,18.1139333 3.04844706,18.1122667 3.03288824,18.1089333 L3.03288824,18.1089333 C3.03085882,18.1089333 2.96557941,18.0572667 2.91416765,17.8316 C2.71460882,16.9606 3.80507941,11.9786 5.29500588,6.95226667 C5.51993235,6.1926 5.07616765,5.39426667 4.30566765,5.17226667 C4.17240294,5.13393333 4.03507941,5.1146 3.89741765,5.1146 C3.25477059,5.1146 2.68010882,5.53926667 2.49982941,6.14693333 C1.60993235,9.1496 -0.407979412,16.3592667 0.0729911765,18.4622667 C0.370976471,19.7659333 1.22569706,20.6596 2.41763824,20.9136 C2.63241765,20.9599333 2.85768235,20.9832667 3.08599118,20.9832667 C4.26474118,20.9832667 5.48374118,20.3492667 6.26743235,19.3292667 C6.71322647,18.7489333 7.58756471,17.6106 8.66721176,15.6002667 C8.56506471,16.0269333 8.47272647,16.4142667 8.39290294,16.7506 L8.39256471,16.7506 L8.38681471,16.7749333 C8.25152059,17.3439333 8.15174118,17.7676 8.10472647,17.9732667 C7.86660882,19.0142667 8.08713824,19.9352667 8.70915294,20.4996 C9.0528,20.8116 9.49622647,20.9832667 9.95757941,20.9832667 C10.1473294,20.9832667 10.3367412,20.9546 10.5204029,20.8976 C11.0142265,20.7442667 11.8983735,20.2449333 12.2707706,18.6219333 C14.9962706,8.39393333 17.8959618,4.6186 18.8487706,3.37793333 C19.1048147,3.04426667 19.4701088,2.86993333 19.6984176,2.86993333 C19.7197265,2.86993333 19.7390059,2.8716 19.7542265,2.87493333 L19.7545647,2.87493333 C19.7565941,2.87493333 19.8218735,2.92626667 19.8732853,3.15226667 C20.0725059,4.0236 18.9820353,9.0056 17.4924471,14.0316 C17.2675206,14.7909333 17.7112853,15.5892667 18.4817853,15.8112667 C18.61505,15.8496 18.7527118,15.8692667 18.8907118,15.8692667 C19.5330206,15.8692667 20.1073441,15.4446 20.2879618,14.8362667 C21.1775206,11.8342667 23.1954324,4.6256 22.7144618,2.52126667" id="Fill-1" fill="#E25800" mask="url(#mask-2)"></path>
                <path d="M4.96231765,4.62706667 C6.02809706,4.62706667 6.89499412,3.77273333 6.89499412,2.7224 C6.89499412,1.67206667 6.02809706,0.817733333 4.96231765,0.817733333 C3.89653824,0.817733333 3.02964118,1.67206667 3.02964118,2.7224 C3.02964118,3.77273333 3.89653824,4.62706667 4.96231765,4.62706667" id="Fill-4" stroke="#E25800" mask="url(#mask-2)"></path>
                <path d="M17.9390529,16.0806667 C16.8732735,16.0806667 16.0063765,16.935 16.0063765,17.9853333 C16.0063765,19.0356667 16.8732735,19.89 17.9390529,19.89 C19.0048324,19.89 19.8717294,19.0356667 19.8717294,17.9853333 C19.8717294,16.935 19.0048324,16.0806667 17.9390529,16.0806667" id="Fill-6" fill="#E25800" mask="url(#mask-2)"></path>
            </g>
        </g>
    </g>
</svg>